# xmcd
#
# Track frame offsets: 
#        150
#        13003
#        26917
#        41357
#        57522
#        70559
#        83808
#        98607
#        113517
#        128253
#        143045
#        156763
#        168380
#        178675
#        192028
#        204458
#        215904
#        228908
#        243011
#        255465
#        268528
#        280713
#        293415
#        306190
#        318366
#
# Disc length: 4408 seconds
#
# Revision: 0
# Processed by: cddbd v1.5.2PL0 Copyright (c) Steve Scherf et al.
# Submitted via: ExactAudioCopyFreeDBPlugin 1.0
#
DISCID=49113619
DTITLE=Various Artist - Vocal Quartets Vol. 7: S-T-V-W (1925-1944)
DYEAR=1997
DGENRE=Gospel
TTITLE0=Sparkling Four Quartette - Shepherd, Feed My Sheep
TTITLE1=Sparkling Four Quartette - Keep On to Gallalee
TTITLE2=Sparkling Four Quartette - They Won't Believe in Me
TTITLE3=Sparkling Four Quartette - Hold the Wind
TTITLE4=T. C. I. Women's Four - That Great Day
TTITLE5=T. C. I. Women's Four - I Got a Home in That Rock
TTITLE6=Tindley Quaker City Gospel Singers - Let Jesus Lead You
TTITLE7=Tindley Quaker City Gospel Singers - Hallelujah Side
TTITLE8=Tindley Quaker City Gospel Singers - Everybody Will Be Happy
TTITLE9=Virginia Four - Since I Been Born
TTITLE10=Virginia Four - Comin' Down the Shiny Way
TTITLE11=Washington's Kentucky Quartet - I Will Be Gone
TTITLE12=Washington's Kentucky Quartet - Throw 'Way Dem Ole Shoes
TTITLE13=Wheat Street Female Quartet - When the Saints Go Marching In
TTITLE14=Wheat Street Female Quartet - Go Down, Moses
TTITLE15=Wheat Street Female Quartet - Wheel in a Wheel
TTITLE16=Wheat Street Female Quartet - Oh! Yes!
TTITLE17=Wheat Street Female Quartet - Religion Is a Fortune
TTITLE18=Wheat Street Female Quartet - My Way Is Cloudy
TTITLE19=Williams Jubilee Singers - He's Got His Eyes on You
TTITLE20=Williams Jubilee Singers - The Gospel Train Is Coming
TTITLE21=Williams Jubilee Singers - Angels Roll the Stone Away
TTITLE22=Williams Jubilee Singers - Oh! Didn't It Rain
TTITLE23=The Willing Four - Naaman
TTITLE24=The Willing Four - You've Got to Move
EXTD=
EXTT0=
EXTT1=
EXTT2=
EXTT3=
EXTT4=
EXTT5=
EXTT6=
EXTT7=
EXTT8=
EXTT9=
EXTT10=
EXTT11=
EXTT12=
EXTT13=
EXTT14=
EXTT15=
EXTT16=
EXTT17=
EXTT18=
EXTT19=
EXTT20=
EXTT21=
EXTT22=
EXTT23=
EXTT24=
PLAYORDER=
